<svg width="24" height="24" viewBox="0 0 24 24" fill="none" xmlns="http://www.w3.org/2000/svg">
<path d="M10.425 13.5754H5.72502C5.29169 13.5754 4.92086 13.4212 4.61252 13.1129C4.30419 12.8046 4.15002 12.4337 4.15002 12.0004C4.15002 11.5671 4.30419 11.1962 4.61252 10.8879C4.92086 10.5796 5.29169 10.4254 5.72502 10.4254H10.425V5.72539C10.425 5.29206 10.5792 4.92122 10.8875 4.61289C11.1959 4.30456 11.5667 4.15039 12 4.15039C12.4334 4.15039 12.8042 4.30456 13.1125 4.61289C13.4209 4.92122 13.575 5.29206 13.575 5.72539V10.4254H18.275C18.7084 10.4254 19.0792 10.5796 19.3875 10.8879C19.6959 11.1962 19.85 11.5671 19.85 12.0004C19.85 12.4337 19.6959 12.8046 19.3875 13.1129C19.0792 13.4212 18.7084 13.5754 18.275 13.5754H13.575V18.2754C13.575 18.7087 13.4209 19.0796 13.1125 19.3879C12.8042 19.6962 12.4334 19.8504 12 19.8504C11.5667 19.8504 11.1959 19.6962 10.8875 19.3879C10.5792 19.0796 10.425 18.7087 10.425 18.2754V13.5754Z" fill="#031A28"/>
</svg>
