<svg width="24" height="24" viewBox="0 0 24 25" fill="none" xmlns="http://www.w3.org/2000/svg">
<path d="M16.5998 11.5139L11.6998 6.61387C11.4998 6.41387 11.4039 6.18053 11.4123 5.91387C11.4206 5.6472 11.5248 5.41387 11.7248 5.21387C11.9248 5.03053 12.1581 4.9347 12.4248 4.92637C12.6914 4.91803 12.9248 5.01387 13.1248 5.21387L19.7248 11.8139C19.8248 11.9139 19.8956 12.0222 19.9373 12.1389C19.9789 12.2555 19.9998 12.3805 19.9998 12.5139C19.9998 12.6472 19.9789 12.7722 19.9373 12.8889C19.8956 13.0055 19.8248 13.1139 19.7248 13.2139L13.1248 19.8139C12.9414 19.9972 12.7123 20.0889 12.4373 20.0889C12.1623 20.0889 11.9248 19.9972 11.7248 19.8139C11.5248 19.6139 11.4248 19.3764 11.4248 19.1014C11.4248 18.8264 11.5248 18.5889 11.7248 18.3889L16.5998 13.5139L5.42476 13.5139C5.14142 13.5139 4.90392 13.418 4.71226 13.2264C4.52059 13.0347 4.42476 12.7972 4.42476 12.5139C4.42476 12.2305 4.52059 11.993 4.71226 11.8014C4.90392 11.6097 5.14142 11.5139 5.42476 11.5139L16.5998 11.5139Z" fill="#A3A8B7"/>
</svg>
