<svg width="12" height="7" viewBox="0 0 12 7" fill="none" xmlns="http://www.w3.org/2000/svg">
<path d="M5.575 6.94844C5.44167 6.94844 5.31667 6.9276 5.2 6.88594C5.08333 6.84427 4.975 6.77344 4.875 6.67344L0.275 2.07344C0.0916667 1.8901 0 1.65677 0 1.37344C0 1.0901 0.0916667 0.856771 0.275 0.673438C0.458333 0.490104 0.691667 0.398438 0.975 0.398438C1.25833 0.398438 1.49167 0.490104 1.675 0.673438L5.575 4.57344L9.475 0.673438C9.65833 0.490104 9.89167 0.398438 10.175 0.398438C10.4583 0.398438 10.6917 0.490104 10.875 0.673438C11.0583 0.856771 11.15 1.0901 11.15 1.37344C11.15 1.65677 11.0583 1.8901 10.875 2.07344L6.275 6.67344C6.175 6.77344 6.06667 6.84427 5.95 6.88594C5.83333 6.9276 5.70833 6.94844 5.575 6.94844Z" fill="#031A28"/>
</svg>
