<svg width="28" height="26" viewBox="0 0 28 26" fill="none" xmlns="http://www.w3.org/2000/svg">
<path d="M14 12.2142C12.198 12.2142 10.6965 11.6327 9.49548 10.4696C8.29453 9.3065 7.69405 7.85233 7.69405 6.10709C7.69405 4.35417 8.29453 2.89809 9.49548 1.73885C10.6965 0.579618 12.198 0 14 0C15.802 0 17.3035 0.579618 18.5045 1.73885C19.7055 2.89809 20.3059 4.35417 20.3059 6.10709C20.3059 7.85233 19.7055 9.3065 18.5045 10.4696C17.3035 11.6327 15.802 12.2142 14 12.2142ZM0 23.6939V22.3728C0 21.4303 0.259856 20.593 0.779569 19.861C1.29928 19.129 1.98074 18.5664 2.82395 18.1732C4.74883 17.3172 6.63206 16.6732 8.47362 16.2413C10.3152 15.8095 12.1573 15.5935 14 15.5935C15.8427 15.5935 17.6817 15.8126 19.5168 16.2506C21.352 16.6887 23.232 17.3295 25.1569 18.1732C26.0129 18.5664 26.7007 19.129 27.2204 19.861C27.7401 20.593 28 21.4303 28 22.3728V23.6939C28 24.3344 27.7685 24.8788 27.3054 25.3273C26.8423 25.7758 26.2801 26 25.6188 26H2.38117C1.71987 26 1.15769 25.7758 0.694635 25.3273C0.231545 24.8788 0 24.3344 0 23.6939Z" fill="#A3A8B7"/>
</svg>
