<svg width="24" height="25" viewBox="0 0 24 25" fill="none" xmlns="http://www.w3.org/2000/svg">
<path d="M15.9376 22.3484C15.7962 22.7289 15.4297 23 15 23H12.75C11.2312 23 10 21.7688 10 20.25C10 18.7312 11.2312 17.5 12.75 17.5H15C15.5523 17.5 16 17.9477 16 18.5V19.2131L18.8254 19.2234V12.0734C18.8254 10.2734 18.1504 8.77344 16.8004 7.57344C15.4504 6.37344 13.8504 5.77344 12.0004 5.77344C10.1504 5.77344 8.55039 6.37344 7.20039 7.57344C5.85039 8.77344 5.17539 10.2734 5.17539 12.0734L5.30039 17.4484C5.31706 17.8818 5.16706 18.2568 4.85039 18.5734C4.53372 18.8901 4.15872 19.0484 3.72539 19.0484H3.60039C2.91706 19.0484 2.33789 18.8151 1.86289 18.3484C1.38789 17.8818 1.15039 17.3068 1.15039 16.6234V14.1984C1.15039 13.8318 1.22956 13.4901 1.38789 13.1734C1.54622 12.8568 1.76706 12.5818 2.05039 12.3484L2.02539 12.1234C2.02539 10.7901 2.29206 9.54844 2.82539 8.39844C3.35872 7.24844 4.07956 6.24844 4.98789 5.39844C5.89622 4.54844 6.95456 3.8776 8.16289 3.38594C9.37122 2.89427 10.6504 2.64844 12.0004 2.64844C13.3504 2.64844 14.6296 2.89427 15.8379 3.38594C17.0462 3.8776 18.1046 4.54844 19.0129 5.39844C19.9212 6.24844 20.6421 7.2526 21.1754 8.41094C21.7087 9.56927 21.9754 10.8151 21.9754 12.1484L21.9504 12.3484C22.2504 12.5651 22.4754 12.8401 22.6254 13.1734C22.7754 13.5068 22.8504 13.8568 22.8504 14.2234V16.5984C22.8504 17.0318 22.7879 17.4526 22.6629 17.8609C22.5379 18.2693 22.3004 18.5901 21.9504 18.8234V19.2234C21.9504 20.0901 21.6462 20.8276 21.0379 21.4359C20.4296 22.0443 19.6921 22.3484 18.8254 22.3484H15.9376Z" fill="white"/>
</svg>
