<svg width="24" height="24" viewBox="0 0 24 24" fill="none" xmlns="http://www.w3.org/2000/svg">
<path d="M12.0001 14.1996L7.5001 18.6996C7.2001 18.9996 6.83343 19.1496 6.4001 19.1496C5.96676 19.1496 5.6001 18.9996 5.3001 18.6996C5.0001 18.3996 4.8501 18.0329 4.8501 17.5996C4.8501 17.1663 5.0001 16.7996 5.3001 16.4996L9.8001 11.9996L5.3001 7.49961C5.0001 7.19961 4.8501 6.83294 4.8501 6.39961C4.8501 5.96628 5.0001 5.59961 5.3001 5.29961C5.6001 4.99961 5.96676 4.84961 6.4001 4.84961C6.83343 4.84961 7.2001 4.99961 7.5001 5.29961L12.0001 9.79961L16.5001 5.29961C16.8001 4.99961 17.1668 4.84961 17.6001 4.84961C18.0334 4.84961 18.4001 4.99961 18.7001 5.29961C19.0001 5.59961 19.1501 5.96628 19.1501 6.39961C19.1501 6.83294 19.0001 7.19961 18.7001 7.49961L14.2001 11.9996L18.7001 16.4996C19.0001 16.7996 19.1501 17.1663 19.1501 17.5996C19.1501 18.0329 19.0001 18.3996 18.7001 18.6996C18.4001 18.9996 18.0334 19.1496 17.6001 19.1496C17.1668 19.1496 16.8001 18.9996 16.5001 18.6996L12.0001 14.1996Z" fill="#A3A8B7"/>
</svg>
