<svg width="24" height="24" viewBox="0 0 24 24" fill="none" xmlns="http://www.w3.org/2000/svg">
<path d="M9.8757 13.8446L16.2213 7.52394C16.4706 7.27465 16.7567 7.15418 17.0795 7.16251C17.4023 7.17085 17.6884 7.29965 17.9377 7.54894C18.1869 7.79822 18.3116 8.08428 18.3116 8.40711C18.3116 8.72993 18.1869 9.01598 17.9377 9.26526L10.7659 16.437C10.5166 16.6863 10.2241 16.8109 9.8882 16.8109C9.55233 16.8109 9.25976 16.6863 9.01047 16.437L6.06372 13.4903C5.81446 13.241 5.68747 12.9549 5.68275 12.6321C5.67803 12.3093 5.80032 12.0232 6.0496 11.7739C6.29888 11.5247 6.58494 11.4 6.90777 11.4C7.23059 11.4 7.51664 11.5247 7.76592 11.7739L9.8757 13.8446Z" fill="#FF6464"/>
</svg>
