<svg width="20" height="21" viewBox="0 0 20 21" fill="none" xmlns="http://www.w3.org/2000/svg">
<path d="M6.37046 17.8998C5.80095 17.8998 5.31829 17.7019 4.92249 17.3061C4.52668 16.9103 4.32878 16.4276 4.32878 15.8581V7V6.12895H4.07878C3.79562 6.12895 3.55469 6.03002 3.35599 5.83216C3.15728 5.63428 3.05792 5.39439 3.05792 5.11249C3.05792 4.83057 3.15728 4.58922 3.35599 4.38843C3.55469 4.18763 3.79562 4.08724 4.07878 4.08724H7.72915V3.83724C7.72915 3.55409 7.82851 3.31316 8.02721 3.11445C8.22592 2.91575 8.46685 2.81641 8.75001 2.81641H11.2265C11.5096 2.81641 11.7505 2.91575 11.9492 3.11445C12.1479 3.31316 12.2473 3.55409 12.2473 3.83724V4.08724H15.9212C16.2044 4.08724 16.4453 4.18618 16.644 4.38405C16.8427 4.58191 16.9421 4.8218 16.9421 5.10372C16.9421 5.38562 16.8427 5.62697 16.644 5.82776C16.4453 6.02855 16.2044 6.12895 15.9212 6.12895H15.6712V7V15.8491C15.6712 16.4288 15.4733 16.9155 15.0775 17.3092C14.6817 17.7029 14.1991 17.8998 13.6295 17.8998H6.37046Z" fill="#858997"/>
</svg>
