<svg width="24" height="24" viewBox="0 0 24 24" fill="none" xmlns="http://www.w3.org/2000/svg">
<path d="M6.84514 18.432L16.2351 9.04198L14.9743 7.76698L5.55602 17.1852L6.84514 18.432ZM4.34969 20.882C4.01186 20.882 3.72247 20.7632 3.48152 20.5256C3.24058 20.2881 3.12012 20.0001 3.12012 19.6616V17.1793C3.12012 16.8557 3.17827 16.5455 3.29457 16.2488C3.41087 15.9521 3.59366 15.6791 3.84294 15.4298L15.5418 3.71674C15.744 3.50514 15.9662 3.35297 16.2084 3.26022C16.4506 3.16747 16.7039 3.12109 16.9682 3.12109C17.2231 3.12109 17.473 3.16747 17.7179 3.26022C17.9629 3.35297 18.1959 3.50044 18.4169 3.70262L20.2995 5.54284C20.5017 5.75444 20.6515 5.98507 20.749 6.23472C20.8464 6.48435 20.8952 6.74086 20.8952 7.00424C20.8952 7.27324 20.8463 7.53331 20.7484 7.78444C20.6506 8.03559 20.5009 8.26087 20.2995 8.46027L8.60059 20.1592C8.35133 20.4085 8.07873 20.5912 7.78282 20.7075C7.48692 20.8238 7.1775 20.882 6.85457 20.882H4.34969ZM15.6006 8.40153L14.9743 7.76698L16.2351 9.04198L15.6006 8.40153Z" fill="#031A28"/>
</svg>
