<svg width="92" height="92" viewBox="0 0 92 92" fill="none" xmlns="http://www.w3.org/2000/svg">
<g filter="url(#filter0_d_1183_10226)">
<g clip-path="url(#clip0_1183_10226)">
<rect x="19" y="17" width="54" height="54" rx="27" fill="white"/>
<path fill-rule="evenodd" clip-rule="evenodd" d="M34.6434 49.556C35.3557 50.2755 36.2251 50.6353 37.2516 50.6353C38.2871 50.6353 39.1623 50.2791 39.8773 49.5667C40.5923 48.8544 40.9498 47.9849 40.9498 46.9584C40.9498 45.9229 40.5966 45.0477 39.8904 44.3328C39.1841 43.6178 38.3147 43.2603 37.2821 43.2603C36.2496 43.2603 35.3736 43.6135 34.6541 44.3197C33.9346 45.026 33.5749 45.8954 33.5749 46.928C33.5749 47.9606 33.931 48.8366 34.6434 49.556ZM52.1479 49.556C52.8602 50.2755 53.7296 50.6353 54.7561 50.6353C55.7916 50.6353 56.6668 50.2791 57.3818 49.5667C58.0968 48.8544 58.4543 47.9849 58.4543 46.9584C58.4543 45.9229 58.1011 45.0477 57.3949 44.3328C56.6886 43.6178 55.8192 43.2603 54.7866 43.2603C53.7541 43.2603 52.8781 43.6135 52.1586 44.3197C51.4391 45.026 51.0794 45.8954 51.0794 46.928C51.0794 47.9606 51.4355 48.8366 52.1479 49.556ZM22.5708 43.548C26.3834 42.0821 29.7468 39.9491 32.6612 37.1489C35.5756 34.3486 37.8101 31.072 39.3647 27.319C42.1546 30.7247 45.5327 33.3639 49.4989 35.2368C53.4651 37.1097 57.671 38.0461 62.1164 38.0461C63.2694 38.0461 64.3668 37.9918 65.4087 37.8831C66.4506 37.7744 67.4619 37.6016 68.4427 37.3647L71.9352 36.4062C71.6418 35.4073 71.2878 34.4276 70.8732 33.4671C69.4553 30.1827 67.531 27.3257 65.1003 24.8961C62.6697 22.4666 59.8115 20.5432 56.5256 19.1259C53.2397 17.7086 49.7296 17 45.9952 17C42.2609 17 38.7515 17.7089 35.4671 19.1268C32.1827 20.5447 29.3257 22.469 26.8961 24.8997C24.4666 27.3303 22.5432 30.1885 21.1259 33.4744C19.7086 36.7603 19 40.2704 19 44.0048L22.5708 43.548Z" fill="#A3A8B7"/>
</g>
</g>
<defs>
<filter id="filter0_d_1183_10226" x="0.4375" y="0.125" width="91.125" height="91.125" filterUnits="userSpaceOnUse" color-interpolation-filters="sRGB">
<feFlood flood-opacity="0" result="BackgroundImageFix"/>
<feColorMatrix in="SourceAlpha" type="matrix" values="0 0 0 0 0 0 0 0 0 0 0 0 0 0 0 0 0 0 127 0" result="hardAlpha"/>
<feMorphology radius="1.6875" operator="dilate" in="SourceAlpha" result="effect1_dropShadow_1183_10226"/>
<feOffset dy="1.6875"/>
<feGaussianBlur stdDeviation="8.4375"/>
<feColorMatrix type="matrix" values="0 0 0 0 0 0 0 0 0 0 0 0 0 0 0 0 0 0 0.05 0"/>
<feBlend mode="normal" in2="BackgroundImageFix" result="effect1_dropShadow_1183_10226"/>
<feBlend mode="normal" in="SourceGraphic" in2="effect1_dropShadow_1183_10226" result="shape"/>
</filter>
<clipPath id="clip0_1183_10226">
<rect x="19" y="17" width="54" height="54" rx="27" fill="white"/>
</clipPath>
</defs>
</svg>
