<svg width="24" height="25" viewBox="0 0 24 25" fill="none" xmlns="http://www.w3.org/2000/svg">
<path d="M11.9904 21.0615C11.7763 21.0615 11.5612 21.023 11.3452 20.9461C11.1291 20.8692 10.9391 20.7487 10.775 20.5846L9.33848 19.2788C7.56539 17.6622 5.98238 16.074 4.58943 14.5144C3.19648 12.9548 2.5 11.284 2.5 9.50193C2.5 8.08271 2.97852 6.89458 3.93558 5.93753C4.89263 4.98048 6.08076 4.50195 7.49998 4.50195C8.30638 4.50195 9.10285 4.68785 9.8894 5.05965C10.6759 5.43145 11.3795 6.0353 12 6.8712C12.6205 6.0353 13.324 5.43145 14.1105 5.05965C14.8971 4.68785 15.6936 4.50195 16.5 4.50195C17.9192 4.50195 19.1073 4.98048 20.0644 5.93753C21.0214 6.89458 21.5 8.08271 21.5 9.50193C21.5 11.3032 20.7916 12.9926 19.375 14.5702C17.9583 16.1477 16.3788 17.7224 14.6365 19.2942L13.2154 20.5846C13.0513 20.7487 12.8596 20.8692 12.6404 20.9461C12.4211 21.023 12.2045 21.0615 11.9904 21.0615Z" fill="#A3A8B7"/>
</svg>
