<svg width="24" height="24" viewBox="0 0 24 24" fill="none" xmlns="http://www.w3.org/2000/svg">
<path d="M11.3846 20C11.1334 20 10.9231 19.9153 10.7539 19.7461C10.5846 19.5769 10.5 19.3666 10.5 19.1153V13.3269L4.90196 6.21538C4.70966 5.95896 4.68178 5.69229 4.81831 5.41538C4.95484 5.13846 5.18529 5 5.50964 5H18.4903C18.8147 5 19.0451 5.13846 19.1817 5.41538C19.3182 5.69229 19.2903 5.95896 19.098 6.21538L13.5 13.3269V19.1153C13.5 19.3666 13.4153 19.5769 13.2461 19.7461C13.0769 19.9153 12.8666 20 12.6153 20H11.3846Z" fill="#A3A8B7"/>
</svg>
