<svg width="24" height="24" viewBox="0 0 24 24" fill="none" xmlns="http://www.w3.org/2000/svg">
<path d="M8.60002 8.4249C8.16669 8.4249 7.79586 8.27074 7.48752 7.9624C7.17919 7.65407 7.02502 7.28324 7.02502 6.8499C7.02502 6.41657 7.17919 6.04574 7.48752 5.7374C7.79586 5.42907 8.16669 5.2749 8.60002 5.2749H20.275C20.7084 5.2749 21.0792 5.42907 21.3875 5.7374C21.6959 6.04574 21.85 6.41657 21.85 6.8499C21.85 7.28324 21.6959 7.65407 21.3875 7.9624C21.0792 8.27074 20.7084 8.4249 20.275 8.4249H8.60002ZM8.60002 13.5749C8.16669 13.5749 7.79586 13.4207 7.48752 13.1124C7.17919 12.8041 7.02502 12.4332 7.02502 11.9999C7.02502 11.5666 7.17919 11.1957 7.48752 10.8874C7.79586 10.5791 8.16669 10.4249 8.60002 10.4249H20.275C20.7084 10.4249 21.0792 10.5791 21.3875 10.8874C21.6959 11.1957 21.85 11.5666 21.85 11.9999C21.85 12.4332 21.6959 12.8041 21.3875 13.1124C21.0792 13.4207 20.7084 13.5749 20.275 13.5749H8.60002ZM8.60002 18.7249C8.16669 18.7249 7.79586 18.5707 7.48752 18.2624C7.17919 17.9541 7.02502 17.5832 7.02502 17.1499C7.02502 16.7166 7.17919 16.3457 7.48752 16.0374C7.79586 15.7291 8.16669 15.5749 8.60002 15.5749H20.275C20.7084 15.5749 21.0792 15.7291 21.3875 16.0374C21.6959 16.3457 21.85 16.7166 21.85 17.1499C21.85 17.5832 21.6959 17.9541 21.3875 18.2624C21.0792 18.5707 20.7084 18.7249 20.275 18.7249H8.60002ZM3.69387 8.4249C3.25646 8.4249 2.88979 8.27527 2.59387 7.976C2.29797 7.67674 2.15002 7.3059 2.15002 6.8635C2.15002 6.4211 2.29797 6.04574 2.59387 5.7374C2.88979 5.42907 3.25646 5.2749 3.69387 5.2749C4.13131 5.2749 4.50836 5.42824 4.82502 5.7349C5.14169 6.04157 5.30002 6.42157 5.30002 6.8749C5.30002 7.31407 5.14169 7.68219 4.82502 7.97928C4.50836 8.27636 4.13131 8.4249 3.69387 8.4249ZM3.69387 13.5749C3.25646 13.5749 2.88979 13.4166 2.59387 13.0999C2.29797 12.7832 2.15002 12.4062 2.15002 11.9688C2.15002 11.5313 2.29797 11.1647 2.59387 10.8688C2.88979 10.5729 3.25646 10.4249 3.69387 10.4249C4.13131 10.4249 4.50836 10.5729 4.82502 10.8688C5.14169 11.1647 5.30002 11.5313 5.30002 11.9688C5.30002 12.4062 5.14169 12.7832 4.82502 13.0999C4.50836 13.4166 4.13131 13.5749 3.69387 13.5749ZM3.69387 18.6999C3.25646 18.6999 2.88979 18.5503 2.59387 18.251C2.29797 17.9517 2.15002 17.5809 2.15002 17.1385C2.15002 16.6961 2.29797 16.3207 2.59387 16.0124C2.88979 15.7041 3.25646 15.5499 3.69387 15.5499C4.13131 15.5499 4.50836 15.7032 4.82502 16.0099C5.14169 16.3166 5.30002 16.6966 5.30002 17.1499C5.30002 17.5891 5.14169 17.9572 4.82502 18.2543C4.50836 18.5514 4.13131 18.6999 3.69387 18.6999Z" fill="white"/>
</svg>
