<svg width="14" height="16" viewBox="0 0 14 16" fill="none" xmlns="http://www.w3.org/2000/svg">
<path d="M6.99999 15.2006C6.85149 15.2006 6.71341 15.176 6.58574 15.1269C6.45808 15.0777 6.32853 15.0013 6.19712 14.8977C5.79649 14.5558 5.29463 14.0892 4.69153 13.4979C4.08844 12.9066 3.5011 12.2426 2.92951 11.5059C2.35793 10.7693 1.87289 9.98001 1.47439 9.13814C1.07587 8.29625 0.876617 7.45116 0.876617 6.60287C0.876617 4.90203 1.4466 3.44585 2.58655 2.23431C3.7265 1.02276 5.19765 0.416992 6.99999 0.416992C8.78845 0.416992 10.2561 1.02276 11.403 2.23431C12.5499 3.44585 13.1234 4.90203 13.1234 6.60287C13.1234 7.45116 12.9206 8.29839 12.5152 9.14456C12.1097 9.99071 11.626 10.7834 11.0641 11.5228C10.5021 12.2621 9.91957 12.9226 9.31647 13.5043C8.71337 14.086 8.21151 14.5478 7.81087 14.8897C7.68138 14.9933 7.5516 15.0711 7.42151 15.1229C7.29142 15.1747 7.15091 15.2006 6.99999 15.2006ZM7.00141 7.88812C7.3744 7.88812 7.69069 7.75784 7.9503 7.49728C8.20992 7.23673 8.33972 6.91996 8.33972 6.54697C8.33972 6.17399 8.20944 5.85769 7.94889 5.59808C7.68833 5.33846 7.37156 5.20866 6.99858 5.20866C6.62559 5.20866 6.30929 5.33894 6.04968 5.59949C5.79007 5.86005 5.66026 6.17682 5.66026 6.5498C5.66026 6.92279 5.79054 7.23909 6.0511 7.4987C6.31165 7.75831 6.62842 7.88812 7.00141 7.88812Z" fill="#A3A8B7"/>
</svg>
