<svg width="25" height="24" viewBox="0 0 25 24" fill="none" xmlns="http://www.w3.org/2000/svg">
<path d="M4.1665 20C3.6165 20 3.14567 19.8042 2.754 19.4125C2.36234 19.0208 2.1665 18.55 2.1665 18V6C2.1665 5.45 2.36234 4.97917 2.754 4.5875C3.14567 4.19583 3.6165 4 4.1665 4H20.1665C20.7165 4 21.1873 4.19583 21.579 4.5875C21.9707 4.97917 22.1665 5.45 22.1665 6V18C22.1665 18.55 21.9707 19.0208 21.579 19.4125C21.1873 19.8042 20.7165 20 20.1665 20H4.1665ZM12.1665 12.825C12.2498 12.825 12.3373 12.8125 12.429 12.7875C12.5207 12.7625 12.6082 12.725 12.6915 12.675L19.7665 8.25C19.8998 8.16667 19.9998 8.0625 20.0665 7.9375C20.1332 7.8125 20.1665 7.675 20.1665 7.525C20.1665 7.19167 20.0248 6.94167 19.7415 6.775C19.4582 6.60833 19.1665 6.61667 18.8665 6.8L12.1665 11L5.4665 6.8C5.1665 6.61667 4.87484 6.6125 4.5915 6.7875C4.30817 6.9625 4.1665 7.20833 4.1665 7.525C4.1665 7.69167 4.19984 7.8375 4.2665 7.9625C4.33317 8.0875 4.43317 8.18333 4.5665 8.25L11.6415 12.675C11.7248 12.725 11.8123 12.7625 11.904 12.7875C11.9957 12.8125 12.0832 12.825 12.1665 12.825Z" fill="#031A28"/>
</svg>
