<svg width="14" height="14" viewBox="0 0 14 14" fill="none" xmlns="http://www.w3.org/2000/svg">
<path d="M9.09808 13.421L4.5003 12.0508L1.29126 13.096C1.17743 13.1332 1.0713 13.1423 0.972888 13.1234C0.874457 13.1046 0.781978 13.0637 0.69545 13.0007C0.608909 12.9378 0.540867 12.8598 0.491325 12.7667C0.44177 12.6736 0.416992 12.5717 0.416992 12.4611V2.50385C0.416992 2.29356 0.474957 2.10619 0.590888 1.94175C0.706805 1.77732 0.851298 1.66572 1.02437 1.60696L4.09005 0.578125C4.1521 0.550347 4.22078 0.532986 4.2961 0.526042C4.37142 0.519097 4.43949 0.515625 4.5003 0.515625C4.56112 0.515625 4.62919 0.519097 4.70451 0.526042C4.77983 0.532986 4.84851 0.550347 4.91055 0.578125L9.50031 1.94831L12.7093 0.903104C12.8232 0.865938 12.9293 0.856799 13.0277 0.875688C13.1262 0.894563 13.2186 0.935465 13.3052 0.998395C13.3917 1.06133 13.4597 1.13933 13.5093 1.23242C13.5588 1.32551 13.5836 1.4274 13.5836 1.53806V11.531C13.5836 11.7419 13.5251 11.9288 13.4081 12.0917C13.2911 12.2546 13.1365 12.3655 12.9442 12.4242L9.90253 13.429C9.83844 13.4568 9.76987 13.4728 9.69683 13.4771C9.62378 13.4814 9.55808 13.4835 9.4997 13.4835C9.44134 13.4835 9.37584 13.48 9.3032 13.4731C9.23055 13.4661 9.16217 13.4488 9.09808 13.421ZM8.95866 12.272V2.897L5.04195 1.7111V11.0861L8.95866 12.272Z" fill="#031A28"/>
</svg>
