<svg width="24" height="24" viewBox="0 0 24 24" fill="none" xmlns="http://www.w3.org/2000/svg">
<path d="M19 12.5C19 12.7033 18.965 12.8939 18.895 13.0717C18.8251 13.2496 18.7061 13.4148 18.5382 13.5673L10.813 20.5807C10.5051 20.8602 10.1132 21 9.6374 21C9.16158 21 8.76972 20.8602 8.46183 20.5807C8.15394 20.3012 8 19.9454 8 19.5135C8 19.0815 8.15394 18.7257 8.46183 18.4462L15.0115 12.5L8.46183 6.55381C8.15394 6.27429 8 5.91854 8 5.48655C8 5.05456 8.15394 4.6988 8.46183 4.41928C8.76972 4.13976 9.16158 4 9.6374 4C10.1132 4 10.5051 4.13976 10.813 4.41928L18.5382 11.4327C18.7061 11.5852 18.8251 11.7504 18.895 11.9283C18.965 12.1061 19 12.2967 19 12.5Z" fill="#A3A8B7"/>
</svg>
