<svg width="24" height="24" viewBox="0 0 24 24" fill="none" xmlns="http://www.w3.org/2000/svg">
<path d="M5 12.5C5 12.7033 5.03499 12.8939 5.10496 13.0717C5.17494 13.2496 5.29389 13.4148 5.46183 13.5673L13.187 20.5807C13.4949 20.8602 13.8868 21 14.3626 21C14.8384 21 15.2303 20.8602 15.5382 20.5807C15.8461 20.3012 16 19.9454 16 19.5135C16 19.0815 15.8461 18.7257 15.5382 18.4462L8.98855 12.5L15.5382 6.55381C15.8461 6.27429 16 5.91854 16 5.48655C16 5.05456 15.8461 4.6988 15.5382 4.41928C15.2303 4.13976 14.8384 4 14.3626 4C13.8868 4 13.4949 4.13976 13.187 4.41928L5.46183 11.4327C5.29389 11.5852 5.17494 11.7504 5.10496 11.9283C5.03499 12.1061 5 12.2967 5 12.5Z" fill="#A3A8B7"/>
</svg>
