<svg width="50" height="50" viewBox="0 0 50 50" fill="none" xmlns="http://www.w3.org/2000/svg">
<g filter="url(#filter0_d_413_2524)">
<ellipse cx="25" cy="44.5312" rx="6.25" ry="2.34375" fill="#FF6464"/>
</g>
<path d="M32.2145 20.9959C32.2145 23.8821 33.3908 26.6437 35.4721 28.6433C35.7694 28.929 35.9375 29.3235 35.9375 29.7358V31.0129C35.9375 31.8759 35.2379 32.5754 34.375 32.5754H26.6752V42.9439C26.6752 43.3491 26.5178 43.7384 26.2362 44.0298L24.9965 45.3125L23.7567 44.0297C23.4751 43.7384 23.3177 43.349 23.3177 42.9438V32.5754H15.625C14.7621 32.5754 14.0625 31.8758 14.0625 31.0129V29.72C14.0625 29.3167 14.2218 28.9297 14.5057 28.6433C16.4932 26.6383 17.6082 23.9295 17.6082 21.1064V11.5819C17.6082 11.4187 17.4759 11.2865 17.3128 11.2865H17.2768C16.3175 11.2865 15.5399 10.5088 15.5399 9.54948C15.5399 8.59017 16.3175 7.8125 17.2768 7.8125H32.5459C33.5052 7.8125 34.2828 8.59017 34.2828 9.54948C34.2828 10.5088 33.5052 11.2865 32.5459 11.2865H32.51C32.3468 11.2865 32.2145 11.4187 32.2145 11.5819V20.9959Z" fill="#031A28"/>
<defs>
<filter id="filter0_d_413_2524" x="17.1875" y="42.1875" width="15.625" height="7.8125" filterUnits="userSpaceOnUse" color-interpolation-filters="sRGB">
<feFlood flood-opacity="0" result="BackgroundImageFix"/>
<feColorMatrix in="SourceAlpha" type="matrix" values="0 0 0 0 0 0 0 0 0 0 0 0 0 0 0 0 0 0 127 0" result="hardAlpha"/>
<feOffset dy="1.5625"/>
<feGaussianBlur stdDeviation="0.78125"/>
<feColorMatrix type="matrix" values="0 0 0 0 0 0 0 0 0 0 0 0 0 0 0 0 0 0 0.3 0"/>
<feBlend mode="normal" in2="BackgroundImageFix" result="effect1_dropShadow_413_2524"/>
<feBlend mode="normal" in="SourceGraphic" in2="effect1_dropShadow_413_2524" result="shape"/>
</filter>
</defs>
</svg>
