<svg width="24" height="24" viewBox="0 0 24 24" fill="none" xmlns="http://www.w3.org/2000/svg">
<path d="M18.0011 22.25C17.2375 22.25 16.5881 21.9826 16.0529 21.4479C15.5176 20.9132 15.25 20.2639 15.25 19.5C15.25 19.3751 15.2599 19.2459 15.2798 19.1121C15.2997 18.9784 15.3295 18.8551 15.3692 18.7423L7.97305 14.4115C7.70895 14.6743 7.40831 14.8798 7.07113 15.0279C6.73394 15.1759 6.37689 15.25 5.99997 15.25C5.23609 15.25 4.58679 14.9827 4.05207 14.4482C3.51736 13.9137 3.25 13.2647 3.25 12.5011C3.25 11.7375 3.51736 11.0881 4.05207 10.5529C4.58679 10.0176 5.23609 9.75 5.99997 9.75C6.37689 9.75 6.73394 9.82403 7.07113 9.9721C7.40831 10.1202 7.70895 10.3256 7.97305 10.5885L15.3692 6.25768C15.3295 6.14486 15.2997 6.02157 15.2798 5.88783C15.2599 5.75409 15.25 5.62481 15.25 5.49998C15.25 4.73609 15.5173 4.08679 16.0518 3.55208C16.5863 3.01736 17.2353 2.75 17.9989 2.75C18.7624 2.75 19.4118 3.01725 19.9471 3.55175C20.4823 4.08625 20.75 4.73528 20.75 5.49885C20.75 6.26242 20.4826 6.91182 19.9479 7.44707C19.4132 7.98233 18.7639 8.24995 18 8.24995C17.6231 8.24995 17.266 8.17592 16.9288 8.02785C16.5916 7.87977 16.291 7.67432 16.0269 7.4115L8.63073 11.7423C8.67048 11.8551 8.70028 11.9782 8.72015 12.1115C8.74002 12.2447 8.74995 12.3736 8.74995 12.498C8.74995 12.6224 8.74002 12.7519 8.72015 12.8865C8.70028 13.0211 8.67048 13.1449 8.63073 13.2577L16.0269 17.5885C16.291 17.3256 16.5916 17.1202 16.9288 16.9721C17.266 16.824 17.6231 16.75 18 16.75C18.7639 16.75 19.4132 17.0173 19.9479 17.5518C20.4826 18.0863 20.75 18.7353 20.75 19.4989C20.75 20.2624 20.4827 20.9118 19.9482 21.4471C19.4137 21.9823 18.7647 22.25 18.0011 22.25Z" fill="#A3A8B7"/>
</svg>
