<svg width="112" height="36" viewBox="0 0 112 36" fill="none" xmlns="http://www.w3.org/2000/svg">
<path d="M4.36902 8.99274C4.41357 8.99274 4.44954 8.95688 4.44954 8.91248V7.08012C4.44954 5.51587 5.49627 4.29999 7.76103 3.16949C8.85058 2.60424 9.63519 2.25758 10.2451 2.25758C11.2473 2.25758 11.6396 3.25658 11.6396 5.81984V8.40871C11.6396 8.73146 11.9017 8.99103 12.2237 8.99103H15.6928C16.695 8.99103 17.7846 9.16522 17.7846 10.5553C17.7846 13.9007 17.1747 14.8126 15.4307 14.8126H11.7201C11.6755 14.8126 11.6396 14.8484 11.6396 14.8928V27.5845C11.6396 29.1914 12.467 29.7993 13.7313 29.7993C14.6907 29.7993 15.3005 29.6696 16.5203 29.2785C16.8698 29.1487 17.1747 29.0616 17.3923 29.0616C18.2197 29.0616 18.2642 32.1457 18.2642 33.406C18.2642 34.4494 16.3472 35.4911 11.989 35.4911C6.32371 35.4911 4.44954 33.0576 4.44954 27.8013V14.8911C4.44954 14.8467 4.41357 14.8109 4.36902 14.8109H3.01051C0.875946 14.8109 0.666944 14.331 0.913635 12.082C1.10722 10.323 2.59422 8.98933 4.36902 8.98933V8.99274Z" fill="#FF6464"/>
<path d="M24.9763 9.29842C27.385 9.29842 27.8938 10.5604 28.012 14.138C28.0171 14.2729 28.197 14.3139 28.2569 14.1927C29.5367 11.5953 31.8854 8.90565 36.3943 8.90565C38.3559 8.90565 38.3987 9.94905 38.3987 10.8166C38.3987 14.3788 37.2663 15.4649 35.5652 15.4649C31.3372 15.4649 28.418 20.851 28.418 25.7606V30.2348C28.418 34.2308 28.418 35.708 25.4114 35.708C24.1917 35.708 21.228 35.5338 21.228 34.1437V10.6885C21.228 9.38551 23.5818 9.29842 24.9763 9.29842Z" fill="#FF6464"/>
<path d="M45.3711 0.0017077C47.3327 0.0017077 48.9893 1.1322 48.9893 3.47688C48.9893 6.08282 46.9404 7.25601 44.8486 7.25601C42.9316 7.25601 41.3624 6.25701 41.3624 3.91063C41.3624 1.39007 43.2366 0 45.3711 0V0.0017077ZM48.943 28.2795C48.9996 31.5839 47.7387 37.1698 43.3856 34.2991C39.5174 31.7495 42.3954 15.0653 41.7958 10.7756C41.7958 9.42821 44.1497 9.34282 45.5442 9.34282C48.8557 9.34282 48.9876 11.211 48.9876 17.0326C48.9533 20.781 49.0595 24.5345 48.943 28.2812V28.2795Z" fill="#FF6464"/>
<path d="M62.8828 13.373C63.6229 12.4167 64.4075 11.5475 65.2795 10.8968C67.241 9.41967 69.5075 8.76733 71.9915 8.76733C77.614 8.76733 80.8536 13.6291 80.8536 19.0596C80.8536 28.2266 75.3047 35.7029 66.1086 35.7029C58.307 35.7029 55.9549 31.0118 55.9549 25.0588V1.94848C55.9549 0.60111 59.4411 0.515725 60.0955 0.515725C62.8845 0.515725 63.1021 1.8187 63.1466 5.51245V11.2042C63.1466 11.8992 63.0592 12.637 62.8845 13.3764L62.8828 13.373ZM63.1432 25.2774C63.1432 27.9704 64.1454 29.6217 66.674 29.6217C70.03 29.6217 72.819 25.2774 72.819 19.2816C72.819 16.8055 72.0343 14.8501 69.5948 14.8501C65.7591 14.8501 63.1449 20.4104 63.1449 25.2774H63.1432Z" fill="#FF6464"/>
<path d="M89.6351 9.12423C91.6686 9.12423 93.3851 10.2957 93.3851 12.7258C93.3851 15.4274 91.2626 16.6432 89.0937 16.6432C87.1065 16.6432 85.4807 15.6084 85.4807 13.1766C85.4807 10.5655 87.4234 9.12423 89.6368 9.12423H89.6351Z" fill="#FF6464"/>
<path d="M108.25 9.12423C110.283 9.12423 112 10.2957 112 12.7258C112 15.4274 109.877 16.6432 107.709 16.6432C105.721 16.6432 104.096 15.6084 104.096 13.1766C104.096 10.5655 106.038 9.12423 108.252 9.12423H108.25Z" fill="#FF6464"/>
<path d="M85.7754 22.7278C85.7754 22.8285 85.7771 22.931 85.7788 23.03H85.7754V22.7278Z" fill="#FF6464"/>
<path d="M85.7754 22.7278V22.8131H85.7771C85.7754 22.7841 85.7754 22.7568 85.7754 22.7278Z" fill="#FF6464"/>
<path d="M111.611 21.9183C111.02 20.9432 107.839 20.8749 107.195 20.8749C105.691 20.8749 104.872 21.1806 104.426 21.9183C104.204 22.2821 104.072 22.7517 103.993 23.3442L103.983 23.5321C103.806 27.1883 101.098 28.9421 98.7404 28.9916C96.3831 28.9421 93.6746 27.1883 93.4982 23.5321L93.4879 23.3442C93.4091 22.7534 93.2772 22.2821 93.0545 21.9183C92.6091 21.1806 91.7902 20.8749 90.2861 20.8749C89.6419 20.8749 86.4606 20.9432 85.8696 21.9166C85.8079 22.0174 85.7754 22.1301 85.7754 22.2496V23.2623C85.7754 23.2896 85.7754 23.3169 85.7771 23.3442C85.7771 23.4143 85.7771 23.4843 85.7788 23.5526C85.9261 31.7649 92.3333 35.9863 98.7404 36C105.147 35.9846 111.555 31.7632 111.702 23.5526C111.704 23.4843 111.704 23.4143 111.704 23.3442C111.705 23.3169 111.705 23.2896 111.705 23.2623V22.2496C111.705 22.1301 111.673 22.0191 111.611 21.9183Z" fill="#FF6464"/>
</svg>
