<svg width="24" height="24" viewBox="0 0 24 24" fill="none" xmlns="http://www.w3.org/2000/svg">
<path d="M12.833 3C8.13888 3 4.33301 6.80588 4.33301 11.5C4.33301 12.9726 4.71498 14.3531 5.37512 15.5601C5.47985 15.7515 5.51229 15.9756 5.45459 16.1861L4.66572 19.0638C4.55171 19.4798 4.93086 19.863 5.34798 19.7535L8.3259 18.9718C8.52798 18.9188 8.74198 18.9484 8.92738 19.0448C10.0971 19.6525 11.4239 20 12.833 20C17.5271 20 21.333 16.1941 21.333 11.5C21.333 6.80588 17.5271 3 12.833 3ZM9.92358 7.53499C10.0617 7.53499 10.2036 7.53415 10.3262 7.54053C10.4778 7.54407 10.6427 7.55517 10.8007 7.90438C10.9884 8.31946 11.3971 9.36077 11.4495 9.46631C11.502 9.57185 11.5391 9.69618 11.4661 9.83431C11.3967 9.97598 11.3606 10.0617 11.2586 10.1871C11.1531 10.3089 11.0374 10.4602 10.9418 10.5523C10.8363 10.6579 10.7273 10.7736 10.8491 10.984C10.971 11.1943 11.3941 11.884 12.0195 12.4408C12.8235 13.159 13.5018 13.3797 13.7129 13.4853C13.924 13.5908 14.0462 13.5744 14.168 13.4327C14.2934 13.2946 14.6946 12.8206 14.8363 12.6095C14.9744 12.3985 15.1154 12.435 15.3066 12.5044C15.5007 12.5738 16.5357 13.0837 16.7468 13.1892C16.9579 13.2948 17.0963 13.347 17.1494 13.4327C17.204 13.5212 17.204 13.9427 17.0291 14.4343C16.8541 14.9252 15.995 15.3999 15.6096 15.4332C15.2207 15.4693 14.8578 15.608 13.082 14.9089C10.94 14.0652 9.58918 11.8713 9.48364 11.7297C9.3781 11.5915 8.6259 10.589 8.6259 9.55485C8.6259 8.51714 9.16997 8.00893 9.36051 7.79785C9.5546 7.58677 9.78192 7.53499 9.92358 7.53499Z" fill="#031A28"/>
</svg>
